<?xml version="1.0" standalone="no"?>
<!DOCTYPE svg PUBLIC "-//W3C//DTD SVG 20010904//EN"
 "http://www.w3.org/TR/2001/REC-SVG-20010904/DTD/svg10.dtd">
<svg version="1.0" xmlns="http://www.w3.org/2000/svg"
 width="189.000000pt" height="191.000000pt" viewBox="0 0 189.000000 191.000000"
 preserveAspectRatio="xMidYMid meet">
<metadata>
Created by potrace 1.15, written by Peter Selinger 2001-2017
</metadata>
<g transform="translate(0.000000,191.000000) scale(0.100000,-0.100000)"
fill="#000000" stroke="none">
<path d="M2 958 l3 -953 943 -3 942 -2 0 955 0 955 -945 0 -945 0 2 -952z
m768 863 c0 -59 4 -84 16 -95 14 -14 73 -16 503 -16 365 0 490 3 499 12 7 7
12 44 12 95 0 76 2 83 20 83 11 0 29 -9 40 -20 20 -20 20 -33 20 -925 0 -892
0 -905 -20 -925 -20 -20 -33 -20 -915 -20 -882 0 -895 0 -915 20 -20 20 -20
33 -20 925 0 892 0 905 20 925 19 19 33 20 380 20 l360 0 0 -79z m550 -11 l0
-90 -130 0 -130 0 -2 83 -2 82 -3 -82 -4 -83 -122 0 c-82 0 -127 4 -135 12 -7
7 -12 43 -12 90 l0 78 270 0 270 0 0 -90z m468 3 l-3 -88 -227 -3 -228 -2 0
90 0 90 230 0 231 0 -3 -87z"/>
<path d="M97 1593 c-4 -3 -7 -343 -7 -755 l0 -748 855 0 855 0 -2 753 -3 752
-846 3 c-465 1 -849 -1 -852 -5z m1693 -748 l0 -745 -845 0 -845 0 0 85 0 85
760 0 760 0 0 660 0 660 85 0 85 0 0 -745z"/>
<path d="M67 1125 c-8 -38 -18 -80 -37 -155 -5 -19 -10 -233 -10 -476 0 -415
1 -442 18 -457 17 -16 94 -17 909 -17 849 0 891 1 906 18 15 17 17 59 17 399
0 325 -2 382 -15 393 -12 10 -16 9 -20 -4 -3 -9 -8 -24 -12 -33 -5 -10 -10
-173 -13 -363 l-5 -345 -860 0 -860 0 -5 540 c-3 312 -8 523 -13 500z"/>
<path d="M1137 1854 c-4 -4 -7 -16 -7 -26 0 -13 -8 -18 -30 -18 -25 0 -30 -4
-30 -24 0 -24 2 -24 90 -25 53 -1 90 3 90 9 0 5 13 7 30 4 23 -5 30 -3 30 10
0 11 -9 16 -29 16 -25 0 -30 4 -33 28 -3 25 -7 27 -53 30 -28 2 -54 0 -58 -4z"/>
<path d="M1510 1846 c0 -6 5 -17 12 -24 9 -9 -10 -12 -85 -12 l-97 0 0 -37 0
-38 202 3 c112 1 211 2 221 2 13 0 17 8 17 35 l0 35 -92 0 c-72 0 -89 3 -80
12 26 26 13 37 -43 37 -37 0 -55 -4 -55 -13z"/>
</g>
</svg>
